<svg xmlns="http://www.w3.org/2000/svg" width="285.286" height="119.517" viewBox="0 0 285.286 119.517"><g transform="translate(-620.807 -251.785)"><g transform="translate(-219 2350.692)"><path d="M991.951-2098.745a94.773,94.773,0,0,0-55.82,22.28c-3.134,2.617-36.885,36.336-37.37,37.322a5.835,5.835,0,0,0,.016,4.152,5.23,5.23,0,0,0,2.262,2.165,5.668,5.668,0,0,0,3.829.081c.469-.21,5.332-4.976,17.53-17.126,16.286-16.237,19.081-18.9,23.1-22a85.672,85.672,0,0,1,66.08-16.447,85.388,85.388,0,0,1,42.475,20.05l.711.63-3.328,3.361-3.312,3.36-1.325-1.147a78.125,78.125,0,0,0-15.009-9.952,76.009,76.009,0,0,0-27.805-7.771,99.964,99.964,0,0,0-14.945.178,75.874,75.874,0,0,0-41.684,18.338c-1.147,1-9.484,9.209-18.515,18.24-13.329,13.313-16.5,16.56-16.8,17.223a5.212,5.212,0,0,0-.016,3.974,5.311,5.311,0,0,0,2.181,2.278,5.508,5.508,0,0,0,3.684.21c.824-.275,1.664-1.066,17.675-17.045,17.19-17.126,19.194-19.032,23.281-21.924a66.868,66.868,0,0,1,31.408-11.94,87.416,87.416,0,0,1,14.541-.016,66.4,66.4,0,0,1,34.656,14.379c.969.792,1.793,1.486,1.826,1.551.032.1-5.122,5.364-6.236,6.366-.307.291-.355.259-1.987-1.018a56.963,56.963,0,0,0-28.823-11.891,80.1,80.1,0,0,0-12.6-.1,57.183,57.183,0,0,0-29.292,11.794c-2.973,2.294-5.186,4.443-20.987,20.26-11.2,11.213-15.623,15.769-15.9,16.286a6.122,6.122,0,0,0-.323,3.49c.291,1.066.969,1.906,3.264,4.055a94.388,94.388,0,0,0,58.7,25.592,149.131,149.131,0,0,0,16.173-.242,94.548,94.548,0,0,0,20.6-4.459,93.09,93.09,0,0,0,32.313-18.483c.937-.792,9.339-9.08,18.693-18.4,12.344-12.327,17.11-17.19,17.449-17.788a3.437,3.437,0,0,0,.452-2.2,3.812,3.812,0,0,0-.355-2.036,4.515,4.515,0,0,0-2.02-2.084,3.354,3.354,0,0,0-2.23-.485,3.824,3.824,0,0,0-2.1.388c-.5.259-5.881,5.525-17.691,17.3-9.322,9.306-17.869,17.707-18.984,18.661a85.589,85.589,0,0,1-66.564,19.937,85.2,85.2,0,0,1-42.346-17.756c-1.131-.888-2.488-2.036-3.037-2.552l-1-.921,3.3-3.28,3.3-3.3,2,1.648a76.4,76.4,0,0,0,34.2,16.076,76.536,76.536,0,0,0,64.173-17.094c.937-.808,9.241-9,18.467-18.192,18.612-18.58,17.659-17.513,17.627-19.646a4.5,4.5,0,0,0-4.653-4.653c-2.133,0-1.066-.969-20.05,17.966-18.6,18.548-18.935,18.871-24.235,22.393a63.266,63.266,0,0,1-12.2,6.414,66.965,66.965,0,0,1-66.516-9.92,18.339,18.339,0,0,1-1.987-1.713c0-.065,1.47-1.583,3.28-3.377l3.264-3.264,1.5,1.2a58.426,58.426,0,0,0,19.5,10.1,70.663,70.663,0,0,0,8.967,1.89,85.437,85.437,0,0,0,14.379,0,57.492,57.492,0,0,0,29.825-13.022c.824-.678,9.048-8.789,18.289-18.031,16.043-16.06,16.819-16.835,17.077-17.675a5.854,5.854,0,0,0-.161-3.651c-.646-1.406-6.85-7.012-11.713-10.615a99.121,99.121,0,0,0-20.632-11.584A96.514,96.514,0,0,0,991.951-2098.745Zm11.374,47.258a47.351,47.351,0,0,1,21.989,8.482c2.262,1.616,2.666,1.971,2.488,2.262a45.242,45.242,0,0,1-4.96,4.443,48.894,48.894,0,0,1-18.774,8.773,40.731,40.731,0,0,1-10.421,1.05,39.062,39.062,0,0,1-10.1-.969,48.065,48.065,0,0,1-18.709-8.514l-1.729-1.309.355-.388c.566-.6,3.781-3.409,4.976-4.346a53.749,53.749,0,0,1,6.963-4.411A48.009,48.009,0,0,1,1003.325-2051.488Z" transform="translate(-58.581)" fill="#2c3396"/><path d="M779-1189.582v20.418l13.534-.043,13.512-.064.064-3.891.043-3.912-9.022-.043-9.044-.064-.064-16.42-.043-16.4H779Z" transform="translate(318.94 -849.645)" fill="#2c3396"/><path d="M1117.992-953.4c-6.739,1.472-10.921,4.493-13.787,9.837-1.394,2.634-1.7,4.415-1.7,10.534,0,6.661.233,7.668,2.169,11.077,4.26,7.2,12.006,10.069,23,8.443a43.32,43.32,0,0,0,6.971-1.317c.465-.31.774-4.8.774-10.147v-9.6h-9.295v13.942h-3.641c-7.281,0-11.076-4.415-11.076-12.781,0-4.725,1.936-9.45,4.57-11,3.408-2.091,9.295-2.014,15.1.232.7.31,1.472-.852,2.246-3.176l1.239-3.563-2.091-.774C1127.829-953.478,1121.555-954.253,1117.992-953.4Z" transform="translate(-47.152 -1105.741)" fill="#2c3396"/></g></g></svg>