<svg xmlns="http://www.w3.org/2000/svg" width="48" height="40.615" viewBox="0 0 48 40.615">
  <g id="quote" transform="translate(0 -0.692)">
    <path id="Path_1" data-name="Path 1" d="M16.615,19.154H10.154a2.758,2.758,0,0,1-2.77-2.769v-.923a7.115,7.115,0,0,1,2.164-5.221,7.116,7.116,0,0,1,5.221-2.163h1.846a1.872,1.872,0,0,0,1.846-1.846V2.539a1.776,1.776,0,0,0-.548-1.3,1.776,1.776,0,0,0-1.3-.548H14.769A14.393,14.393,0,0,0,9.043,1.861,14.63,14.63,0,0,0,1.168,9.736,14.386,14.386,0,0,0,0,15.462V35.769a5.341,5.341,0,0,0,1.615,3.924,5.343,5.343,0,0,0,3.923,1.615H16.616a5.514,5.514,0,0,0,5.538-5.539V24.693a5.516,5.516,0,0,0-5.539-5.539Z" fill="#2c3396"/>
    <path id="Path_2" data-name="Path 2" d="M46.386,20.769a5.341,5.341,0,0,0-3.923-1.615H36a2.758,2.758,0,0,1-2.769-2.769v-.923A7.117,7.117,0,0,1,35.4,10.241a7.115,7.115,0,0,1,5.222-2.163h1.846a1.872,1.872,0,0,0,1.847-1.846V2.539a1.776,1.776,0,0,0-.548-1.3,1.775,1.775,0,0,0-1.3-.548H40.617A14.4,14.4,0,0,0,34.89,1.861a14.634,14.634,0,0,0-7.874,7.875,14.389,14.389,0,0,0-1.169,5.726V35.769a5.515,5.515,0,0,0,5.538,5.539H42.462A5.514,5.514,0,0,0,48,35.769V24.693A5.341,5.341,0,0,0,46.386,20.769Z" fill="#2c3396"/>
  </g>
</svg>
